<svg width="82" height="51" viewBox="0 0 82 51" fill="none" xmlns="http://www.w3.org/2000/svg">
<path d="M67.7949 19.0897C67.7882 19.1412 67.7837 19.1911 67.7748 19.2441C66.6441 26.7548 59.7413 31.5579 53.0766 33.9535C48.7148 35.5219 43.7657 36.2751 39.1447 35.3846C36.1874 40.6492 30.5173 44.7859 25.2668 46.7102C19.5186 48.817 13.2847 48.8054 7.54913 46.9361C7.46956 47.3294 7.39692 47.7279 7.34098 48.1312C7.30602 48.3862 7.18381 48.5695 7.02289 48.6935C7.0176 48.9108 7.01231 49.1281 7.01616 49.3489C7.03117 50.0256 6.00464 50.3557 5.61213 49.8063C4.03737 47.602 2.44715 45.4086 0.860716 43.2159C0.535245 42.7659 0.683594 42.0435 1.30601 41.9529C1.79663 41.8823 2.28725 41.8117 2.77944 41.7433C2.97283 41.623 3.21028 41.5649 3.45486 41.6152C3.4889 41.6211 3.52231 41.6308 3.55414 41.6383C5.25867 41.4084 6.96602 41.1966 8.68088 41.0328C9.36128 40.9679 9.61566 41.842 9.11407 42.1406C9.11239 42.2319 9.09274 42.3259 9.04755 42.4213C8.63136 43.3134 8.28104 44.2188 7.99911 45.1459C17.285 48.2205 27.798 45.798 34.6007 38.3999C35.5076 37.4139 36.432 36.2185 37.231 34.9118C36.2087 34.6017 35.2079 34.2096 34.2434 33.705C29.908 31.4477 24.2984 24.3575 30.2853 20.5603C36.1851 16.8181 41.6779 23.4671 41.1517 29.195C41.0026 30.8154 40.5636 32.3775 39.9049 33.8684C47.6653 35.2577 56.8144 31.8462 62.0294 26.744C63.8782 24.9338 65.3721 22.4542 66.0008 19.8535C61.0706 21.7945 55.2991 22.7166 52.1888 17.8998C49.2412 13.3315 53.4378 7.26908 58.4927 7.20831C64.0756 7.14382 67.7729 12.2554 67.8834 17.4121C68.2348 17.2433 68.5802 17.0753 68.9234 16.909C74.9585 13.9851 81.6394 8.64857 79.8822 1.03157C79.7134 0.296981 80.8375 0.104594 81.0239 0.826659C82.9346 8.20148 77.1815 14.1454 71.2293 17.3642C70.229 17.9093 69.0591 18.5145 67.7949 19.0897ZM37.3638 22.813C35.5014 20.9659 32.3334 20.7077 30.4371 22.6382C27.8939 25.2238 30.5867 29.0017 32.7821 30.743C34.3642 31.9979 36.1498 32.875 38.0533 33.4318C39.8139 29.8958 40.4023 25.8288 37.3638 22.813ZM64.3407 11.6805C60.9638 7.62987 53.7533 7.85967 52.8176 13.8476C52.2184 17.6887 56.0957 19.9268 59.4655 19.922C61.8075 19.9178 64.1054 19.1208 66.2814 18.1566C66.4801 15.8805 65.9451 13.6036 64.3407 11.6805Z" fill="white"/>
</svg>
