<svg width="98" height="78" viewBox="0 0 98 78" fill="none" xmlns="http://www.w3.org/2000/svg">
<path d="M49.9253 9.17637L40.3357 10.4984L1.23322 15.8889L9.66327 77.0396L48.7657 71.6491L58.3554 70.3271L97.4579 64.9365L89.0278 3.78582L49.9253 9.17637Z" fill="#3B48C7"/>
<path d="M91.8797 59.9129C78.5403 56.8118 64.7801 58.7087 52.7773 65.3035C50.2285 46.8148 47.6797 28.3261 45.1327 9.85077C57.1337 3.24272 70.8939 1.34578 84.2352 4.46022C86.7822 22.9356 89.331 41.4243 91.8797 59.9129Z" fill="#ECF9FB"/>
<path d="M79.1491 9.682C79.0827 9.69116 79.0145 9.68703 78.9462 9.6829C69.6947 8.54914 60.2512 9.851 51.6382 13.4475C51.2297 13.6256 50.7548 13.4204 50.5899 13.01C50.4118 12.6015 50.617 12.1266 51.0274 11.9617C59.8968 8.26218 69.6193 6.92187 79.1588 8.08359C79.6003 8.14454 79.9113 8.53477 79.8636 8.97445C79.7935 9.34954 79.5077 9.63257 79.1491 9.682Z" fill="#4F5DE4"/>
<path d="M80.0245 16.0308C79.958 16.0399 79.8898 16.0358 79.8216 16.0317C70.5568 14.8997 61.1265 16.1998 52.5136 19.7963C52.105 19.9744 51.6301 19.7692 51.4653 19.3588C51.3004 18.9484 51.4923 18.4753 51.9027 18.3105C60.7721 14.6109 70.4946 13.2706 80.0209 14.4342C80.4606 14.4818 80.7734 14.8854 80.7257 15.325C80.6689 15.6983 80.3831 15.9813 80.0245 16.0308Z" fill="#4F5DE4"/>
<path d="M80.9012 22.3929C80.8348 22.4021 80.7665 22.398 80.6983 22.3938C71.4468 21.2601 62.0032 22.5619 53.3903 26.1584C52.9818 26.3366 52.5068 26.1314 52.342 25.721C52.1639 25.3124 52.3691 24.8375 52.7795 24.6726C61.6489 20.9731 71.3713 19.6328 80.9109 20.7945C81.3524 20.8555 81.6634 21.2457 81.6157 21.6854C81.5456 22.0605 81.2598 22.3435 80.9012 22.3929Z" fill="#4F5DE4"/>
<path d="M81.7765 28.7417C81.7101 28.7509 81.6419 28.7467 81.5736 28.7426C72.3089 27.6107 62.8786 28.9107 54.2657 32.5072C53.8571 32.6853 53.3822 32.4801 53.2173 32.0697C53.0525 31.6594 53.2444 31.1863 53.6548 31.0214C62.5242 27.3219 72.2467 25.9816 81.773 27.1451C82.2145 27.2061 82.5254 27.5963 82.4778 28.036C82.421 28.4092 82.1351 28.6923 81.7765 28.7417Z" fill="#4F5DE4"/>
<path d="M54.9317 38.9119C54.5731 38.9614 54.2213 38.7662 54.0789 38.4204C53.9008 38.0119 54.106 37.537 54.5164 37.3721C63.3858 33.6726 73.1083 32.3323 82.6479 33.494C83.0894 33.5549 83.4003 33.9452 83.3526 34.3848C83.305 34.8245 82.9015 35.1373 82.4618 35.0896C73.2103 33.9559 63.7667 35.2577 55.1538 38.8542C55.0778 38.8918 54.9981 38.9028 54.9317 38.9119Z" fill="#4F5DE4"/>
<path d="M55.809 45.2742C55.4504 45.3237 55.0987 45.1285 54.9562 44.7827C54.7781 44.3742 54.9833 43.8993 55.3937 43.7344C64.2631 40.0349 73.9856 38.6946 83.5119 39.8581C83.9534 39.9191 84.2643 40.3093 84.2167 40.749C84.169 41.1887 83.7655 41.5014 83.3258 41.4538C74.0611 40.3218 64.6308 41.6219 56.0179 45.2184C55.9533 45.2408 55.8754 45.2651 55.809 45.2742Z" fill="#4F5DE4"/>
<path d="M84.404 47.8014C84.3376 47.8105 84.2693 47.8064 84.2011 47.8023C74.9363 46.6704 65.506 47.9704 56.8931 51.5669C56.4846 51.745 56.0096 51.5398 55.8448 51.1294C55.6667 50.7209 55.8719 50.2459 56.2823 50.0811C65.1517 46.3816 74.8742 45.0413 84.4004 46.2048C84.8401 46.2525 85.1529 46.656 85.1052 47.0957C85.0484 47.4689 84.7626 47.752 84.404 47.8014Z" fill="#4F5DE4"/>
<path d="M57.5599 57.9717C57.2012 58.0212 56.8495 57.826 56.7071 57.4802C56.529 57.0717 56.7342 56.5968 57.1446 56.4319C66.0007 52.7342 75.7365 51.3921 85.2627 52.5556C85.7024 52.6033 86.0152 53.0068 85.9675 53.4465C85.9199 53.8862 85.5164 54.199 85.0767 54.1513C75.8119 53.0194 66.3684 54.3212 57.7687 57.9159C57.706 57.9516 57.6263 57.9626 57.5599 57.9717Z" fill="#4F5DE4"/>
<path d="M52.776 65.3036C39.4365 62.2024 25.6763 64.0993 13.6735 70.6941C11.1247 52.2054 8.57594 33.7168 6.02898 15.2414C18.0299 8.63335 31.7902 6.7364 45.1314 9.85085C47.6784 28.3262 50.2272 46.8149 52.776 65.3036Z" fill="#ECF9FB"/>
<path d="M40.0586 15.0709C39.9922 15.0801 39.9239 15.0759 39.8557 15.0718C30.6042 13.9381 21.1606 15.2399 12.5477 18.8364C12.124 19.0031 11.6509 18.8112 11.4861 18.4008C11.308 17.9922 11.4999 17.5191 11.9236 17.3525C20.793 13.6529 30.5154 12.3126 40.0417 13.4762C40.4832 13.5371 40.7942 13.9273 40.7465 14.367C40.6897 14.7403 40.4039 15.0233 40.0586 15.0709Z" fill="#4F5DE4"/>
<path d="M13.2148 25.2411C12.8562 25.2906 12.5045 25.0955 12.3621 24.7497C12.1839 24.3411 12.3759 23.868 12.7995 23.7013C21.6689 20.0018 31.3914 18.6615 40.9177 19.825C41.3574 19.8727 41.6702 20.2762 41.6225 20.7159C41.5616 21.1574 41.1713 21.4684 40.7316 21.4207C31.4669 20.2888 22.0233 21.5906 13.4237 25.1853C13.3458 25.2096 13.2812 25.232 13.2148 25.2411Z" fill="#4F5DE4"/>
<path d="M41.8104 27.782C41.744 27.7911 41.6757 27.787 41.6075 27.7829C32.356 26.6491 22.9125 27.951 14.2995 31.5475C13.891 31.7256 13.4161 31.5204 13.2512 31.11C13.0864 30.6996 13.2783 30.2265 13.6887 30.0617C22.5581 26.3622 32.2806 25.0219 41.8068 26.1854C42.2484 26.2463 42.5593 26.6366 42.5116 27.0763C42.4415 27.4514 42.1557 27.7344 41.8104 27.782Z" fill="#4F5DE4"/>
<path d="M14.9661 37.9521C14.6075 38.0015 14.2558 37.8064 14.1134 37.4606C13.9485 37.0502 14.1405 36.5771 14.5509 36.4123C23.4203 32.7128 33.1428 31.3724 42.669 32.536C43.1105 32.5969 43.4215 32.9872 43.3738 33.4268C43.3129 33.8684 42.9226 34.1793 42.483 34.1316C33.2182 32.9997 23.7746 34.3016 15.175 37.8962C15.0971 37.9205 15.0326 37.9429 14.9661 37.9521Z" fill="#4F5DE4"/>
<path d="M43.5604 40.4797C43.494 40.4889 43.4257 40.4848 43.3575 40.4806C34.0927 39.3487 24.6492 40.6506 16.0495 44.2452C15.641 44.4234 15.1661 44.2181 15.0012 43.8078C14.8364 43.3974 15.0283 42.9243 15.4387 42.7594C24.3081 39.0599 34.0306 37.7196 43.5568 38.8832C43.9984 38.9441 44.3093 39.3343 44.2616 39.774C44.1915 40.1491 43.9057 40.4321 43.5604 40.4797Z" fill="#4F5DE4"/>
<path d="M16.7182 50.663C16.3596 50.7125 16.0079 50.5173 15.8655 50.1715C15.7006 49.7612 15.8926 49.2881 16.3029 49.1232C25.1591 45.4255 34.8948 44.0834 44.4211 45.2469C44.8626 45.3079 45.1736 45.6981 45.1259 46.1378C45.065 46.5793 44.6747 46.8902 44.235 46.8426C34.9703 45.7106 25.5267 47.0125 16.9271 50.6072C16.8492 50.6314 16.7846 50.6539 16.7182 50.663Z" fill="#4F5DE4"/>
<path d="M17.5942 57.0119C17.2356 57.0613 16.8839 56.8662 16.7414 56.5204C16.5766 56.11 16.7685 55.6369 17.1789 55.4721C26.0483 51.7726 35.7708 50.4323 45.2971 51.5958C45.7368 51.6435 46.0495 52.047 46.0019 52.4867C45.9409 52.9282 45.5507 53.2391 45.111 53.1915C35.8463 52.0595 26.416 53.3596 17.8031 56.956C17.7252 56.9803 17.6606 57.0028 17.5942 57.0119Z" fill="#4F5DE4"/>
<path d="M18.4682 63.3608C18.1096 63.4102 17.7579 63.2151 17.6155 62.8693C17.4506 62.4589 17.6426 61.9858 18.0529 61.821C26.9091 58.1233 36.6315 56.783 46.1711 57.9447C46.6108 57.9923 46.9236 58.3959 46.8759 58.8355C46.815 59.277 46.4247 59.588 45.985 59.5403C36.7203 58.4084 27.2767 59.7103 18.6771 63.3049C18.601 63.3425 18.5346 63.3516 18.4682 63.3608Z" fill="#4F5DE4"/>
<path d="M13.6745 70.694L52.777 65.3035C39.4357 62.189 25.6754 64.086 13.6745 70.694Z" fill="#A2E2E8"/>
<path d="M52.777 65.3034L91.8795 59.9129C78.5382 56.7984 64.778 58.6954 52.777 65.3034Z" fill="#A2E2E8"/>
<path opacity="0.2" d="M84.2332 4.44693C86.782 22.9356 89.3308 41.4243 91.8778 59.8996L52.7753 65.2902L13.6729 70.6807L16.6955 72.9709L94.8871 62.1917L87.2426 6.73898L84.2332 4.44693Z" fill="black"/>
<path opacity="0.2" d="M52.7774 65.3035C52.7774 65.3035 52.6053 64.4475 52.3168 62.9444C52.055 61.4375 51.6237 59.2909 51.2117 56.6949C50.7997 54.0989 50.2626 51.0871 49.7742 47.8385C49.2725 44.5917 48.7813 41.1269 48.2901 37.6621C47.8255 34.1936 47.3609 30.7252 46.9672 27.477C46.5585 24.2174 46.2605 21.1726 45.9548 18.562C45.649 15.9514 45.4834 13.7681 45.3278 12.2466C45.1987 10.7215 45.1329 9.85083 45.1329 9.85083C45.1329 9.85083 45.305 10.7068 45.5934 12.21C45.8553 13.7168 46.2866 15.8635 46.6986 18.4595C47.1106 21.0554 47.6476 24.0673 48.1361 27.3159C48.6378 30.5627 49.129 34.0275 49.6183 37.479C50.0829 40.9475 50.5475 44.4159 50.943 47.6773C51.3518 50.9369 51.6497 53.9817 51.9555 56.5924C52.2612 59.203 52.4269 61.3863 52.5825 62.9077C52.6982 64.4347 52.7774 65.3035 52.7774 65.3035Z" fill="black"/>
</svg>
