<svg width="133" height="131" viewBox="0 0 133 131" fill="none" xmlns="http://www.w3.org/2000/svg">
<path d="M37.8364 81.2471L58.8491 103.39C61.2509 105.92 84.2101 94.3886 89.2844 89.5732C94.3587 84.7578 107.076 62.4335 104.674 59.9026L83.6616 37.7601L37.8364 81.2471Z" fill="#184F78"/>
<path opacity="0.3" d="M47.5706 91.5046L78.6836 78.38L93.4069 48.0069L85.789 39.9794L39.9527 83.4771L47.5706 91.5046Z" fill="black"/>
<path d="M43.1651 40.9519L15.4262 98.1702L74.007 73.4521L101.745 16.2555L43.1651 40.9519Z" fill="#184F78"/>
<path d="M74.007 73.4523L15.4262 98.1704L17.5423 100.4L76.1231 75.6822L103.861 18.4856L101.745 16.2557L74.007 73.4523Z" fill="#467293"/>
<path d="M103.424 53.1008L103.268 53.2493L101.658 54.7766L101.502 54.9251C101.502 54.9251 102.927 64.8882 111.37 68.212C112.018 67.5968 112.533 67.1089 112.957 66.7059L112.969 66.6952C113.002 66.6634 113.248 66.4301 114.6 65.1467C114.6 65.1467 114.6 65.1467 114.612 65.1361C115.025 64.7436 115.539 64.2557 116.199 63.6299C113.288 55.0341 103.424 53.1008 103.424 53.1008Z" fill="#FDC00F"/>
<path d="M114.363 63.508C113.945 62.8663 113.276 62.2509 112.664 61.539C112.347 61.1827 112.009 60.8259 111.625 60.5116C111.253 60.1866 110.87 59.8505 110.51 59.515C110.138 59.1683 109.732 58.8969 109.337 58.5931C108.942 58.3111 108.558 58.0185 108.185 57.7371C107.393 57.2601 106.699 56.753 106.055 56.4321C104.79 55.7039 103.918 55.3447 103.918 55.3447C103.918 55.3447 104.777 55.7798 105.985 56.6046C106.605 56.9901 107.265 57.5291 108.002 58.0591C108.342 58.3506 108.704 58.6644 109.077 58.9676C109.438 59.2814 109.822 59.574 110.149 59.9414C110.488 60.2982 110.827 60.6332 111.155 60.9788C111.506 61.3032 111.801 61.6589 112.073 62.0358C112.609 62.7568 113.202 63.3594 113.533 63.999C113.865 64.5733 114.147 65.0266 114.355 65.3801C114.433 65.3059 114.511 65.2316 114.601 65.1468C114.601 65.1468 114.601 65.1468 114.612 65.1362C114.78 64.9771 114.97 64.7968 115.16 64.6165C114.917 64.3165 114.666 63.9402 114.363 63.508Z" fill="#FED96F"/>
<path d="M111.867 65.5789C111.268 65.2156 110.686 64.5807 109.983 64.0189C109.632 63.738 109.293 63.4029 108.976 63.0467C108.648 62.7011 108.32 62.3337 107.992 61.9881C107.643 61.6419 107.371 61.2432 107.076 60.8658C106.782 60.4883 106.498 60.1003 106.225 59.7451C105.734 58.9818 105.22 58.2832 104.878 57.6542C104.118 56.4052 103.728 55.5246 103.728 55.5246C103.728 55.5246 104.041 56.4141 104.702 57.7151C104.999 58.3865 105.47 59.1058 105.894 59.911C106.155 60.2985 106.406 60.6967 106.688 61.1065C106.971 61.5163 107.21 61.9468 107.548 62.3253C107.863 62.725 108.168 63.1136 108.485 63.4916C108.778 63.8908 109.117 64.2476 109.456 64.5826C110.146 65.2421 110.714 65.9529 111.334 66.382C111.76 66.7192 112.101 66.989 112.41 67.2253C112.6 67.045 112.801 66.854 112.958 66.7055L112.969 66.6949C112.98 66.6843 113.047 66.6207 113.215 66.4616C112.861 66.246 112.412 65.9517 111.867 65.5789Z" fill="#FED96F"/>
<path d="M114.889 61.3546C114.617 60.9559 114.312 60.5673 113.931 60.1877C113.593 59.7874 113.19 59.429 112.786 59.0706C112.393 58.7016 111.922 58.4068 111.506 58.0808C109.711 56.8604 107.782 56.1483 106.356 55.7426C104.919 55.3475 103.974 55.2695 103.974 55.2695C103.974 55.2695 104.927 55.4457 106.34 55.949C107.741 56.4629 109.612 57.3151 111.209 58.5959C111.592 58.932 112.019 59.2257 112.357 59.6042C112.718 59.9615 113.057 60.2965 113.34 60.6846C113.657 61.0408 113.908 61.4172 114.105 61.7813C114.335 62.1354 114.543 62.4889 114.686 62.819C115.027 63.4698 115.197 64.0292 115.306 64.4347C115.305 64.4564 115.305 64.4564 115.316 64.4676C115.573 64.2236 115.852 63.9584 116.176 63.6509C116.116 63.4752 116.044 63.3101 115.962 63.1339C115.848 62.9242 115.756 62.7151 115.62 62.4831C115.445 62.1196 115.194 61.7432 114.889 61.3546Z" fill="#FED96F"/>
<path d="M103.807 55.4291L113.372 66.2918C113.551 66.1221 113.796 65.8887 114.154 65.5493L103.807 55.4291Z" fill="#FED96F"/>
<path d="M112.188 67.3941C111.788 67.2644 111.25 67.055 110.607 66.6907C110.273 66.5408 109.942 66.3257 109.601 66.056C109.237 65.8292 108.885 65.5483 108.545 65.235C108.173 64.9318 107.845 64.5862 107.518 64.1971C107.158 63.8398 106.897 63.4087 106.571 62.9978C105.387 61.3246 104.634 59.4117 104.194 57.9857C103.765 56.549 103.639 55.5879 103.639 55.5879C103.639 55.5879 103.689 56.5362 103.987 57.9914C104.317 59.4365 104.928 61.4002 106.052 63.257C106.356 63.7109 106.615 64.1854 106.974 64.5863C107.299 65.0189 107.647 65.4303 108.03 65.7882C108.378 66.1779 108.761 66.514 109.145 66.8066C109.517 67.1098 109.869 67.3907 110.233 67.5957C110.458 67.7428 110.651 67.8565 110.865 67.9707C111.038 68.0403 111.188 68.1311 111.37 68.2119C111.683 67.9149 111.974 67.6391 112.231 67.3952C112.209 67.3947 112.209 67.3947 112.188 67.3941Z" fill="#FED96F"/>
<path d="M100.283 56.0813C99.1406 54.8772 99.1925 52.9845 100.4 51.8389C101.607 50.6934 103.5 50.7406 104.642 51.9448C105.785 53.1489 105.733 55.0417 104.526 56.1872C103.308 57.3215 101.415 57.2743 100.283 56.0813Z" fill="#FED96F"/>
<path opacity="0.3" d="M62.4426 61.2659C66.2327 57.6691 67.581 52.9364 65.454 50.6951C63.327 48.4537 58.5302 49.5525 54.7401 53.1492C50.95 56.7459 49.6018 61.4786 51.7288 63.72C53.8558 65.9613 58.6525 64.8626 62.4426 61.2659Z" fill="black"/>
<path d="M66.0811 51.6469C66.4812 52.5386 66.5495 53.618 66.3103 54.7985L66.3826 54.9418L89.833 42.9651L101.334 55.0844L103.569 52.963L90.4919 39.1825L66.0811 51.6469Z" fill="#FDC00F"/>
<path d="M51.1892 63.1514C49.3587 61.2225 50.5264 57.1479 53.7789 54.0613C57.0425 50.9642 61.1615 50.022 62.9919 51.9508C64.8224 53.8796 63.6547 57.9543 60.4022 61.0408C57.1497 64.1273 53.0196 65.0802 51.1892 63.1514Z" fill="#184F78"/>
</svg>
