<svg width="803" height="738" viewBox="0 0 803 738" fill="none" xmlns="http://www.w3.org/2000/svg">
<path d="M815.192 440.459L814.292 441.113C810.609 443.647 808.563 450.514 810.363 454.438C812.246 458.689 816.911 461.713 821.33 461.713C825.176 461.713 830.168 459.179 832.296 454.356C832.787 453.293 833.033 452.067 833.033 450.759C833.033 446.917 830.987 442.503 827.877 440.459C826.813 439.723 825.667 439.151 824.522 438.497L823.048 437.679C822.639 437.434 822.148 437.352 821.657 437.434C821.412 437.434 821.166 437.434 820.921 437.434C818.547 438.088 816.747 439.396 815.192 440.459ZM822.23 442.83C823.294 443.402 824.276 443.892 825.258 444.546C827.468 446.018 829.023 450.35 827.959 452.558C826.649 455.419 823.539 457.054 821.248 457.054C819.038 457.054 815.928 455.5 814.537 452.476C814.374 452.067 814.292 451.577 814.292 451.004C814.292 448.879 815.437 445.936 816.829 444.955L817.811 444.301C819.038 443.402 820.102 442.666 821.33 442.339L822.23 442.83ZM795.551 760.258C791.95 762.383 788.349 764.59 784.666 766.634L780.083 769.25C775.909 771.621 771.818 773.91 767.726 776.362C763.306 778.978 762.406 782.003 762.488 785.927C762.57 804.32 762.57 822.958 762.488 841.27C762.57 845.439 763.388 848.382 767.889 850.835C776.892 855.739 785.894 861.053 794.65 866.203C797.924 868.165 801.279 870.127 804.553 872.007L816.092 878.792C819.693 880.918 823.376 880.836 826.895 878.792C832.132 875.604 837.452 872.58 842.771 869.555C847.764 866.694 852.756 863.832 857.666 860.89C860.203 859.418 862.74 857.947 865.277 856.475C868.551 854.758 871.824 852.878 875.098 850.835C879.435 848.137 880.417 845.276 880.335 841.27C880.253 822.877 880.253 804.238 880.335 785.927L880.335 785.763C880.335 781.839 879.435 778.896 875.016 776.362C869.205 773.092 863.477 769.74 857.666 766.389C851.037 762.547 844.408 758.786 837.779 754.944C836.224 754.045 834.751 753.145 833.196 752.246C829.923 750.284 826.486 748.322 822.967 746.524C822.557 746.279 822.066 746.279 821.657 746.279C821.248 746.197 820.839 746.279 820.43 746.442C811.673 750.611 803.489 755.516 795.551 760.258ZM830.741 756.415C832.296 757.315 833.851 758.214 835.406 759.113C842.035 762.874 848.664 766.716 855.293 770.476C861.103 773.828 866.832 777.098 872.642 780.449C875.179 781.839 875.589 783.065 875.589 785.763L875.589 785.927C875.507 795.082 875.507 804.402 875.507 813.639C875.507 822.877 875.507 832.196 875.589 841.352C875.67 844.049 875.179 845.276 872.642 846.829C869.451 848.791 866.177 850.671 862.985 852.47C860.367 853.941 857.748 855.412 855.211 856.884C850.301 859.827 845.39 862.606 840.398 865.467C835.079 868.574 829.677 871.599 824.44 874.787C822.476 876.013 820.511 876.013 818.465 874.787L806.926 868.002C803.653 866.04 800.297 864.159 797.024 862.198C788.267 857.047 779.265 851.652 770.099 846.747C767.562 845.357 767.071 844.295 767.153 841.352C767.235 822.958 767.235 804.32 767.153 785.927C767.153 783.147 767.562 781.921 770.099 780.449C774.191 778.079 778.283 775.708 782.375 773.419L786.958 770.803C790.64 768.678 794.241 766.552 797.924 764.345C805.535 759.767 813.391 755.107 821.575 751.265C824.685 752.9 827.795 754.699 830.741 756.415ZM146.409 614.092C146.654 610.004 146.982 605.835 146.163 601.257C145.836 599.377 145.427 597.415 142.562 595.617C129.714 587.769 116.702 580.493 105.735 574.362C103.935 573.381 102.134 572.237 100.416 571.092C96.6511 568.64 92.641 566.106 87.9762 564.716C87.6489 564.634 87.3216 564.634 87.076 564.634C86.6669 564.552 86.2576 564.634 85.8484 564.879C77.501 568.722 69.5626 573.545 61.8698 578.123C57.6142 580.657 53.1949 583.273 48.7757 585.725L53.5223 588.505C57.1232 586.461 60.7241 584.336 64.2431 582.21C71.6086 577.796 79.3014 573.218 87.2397 569.539C91.0043 570.765 94.3597 572.891 97.8787 575.18C99.6791 576.406 101.561 577.55 103.444 578.613C114.41 584.744 127.34 592.02 140.107 599.786C141.253 600.44 141.253 600.685 141.58 602.565C142.235 606.244 141.99 610.004 141.744 613.928C141.58 616.054 141.499 618.179 141.499 620.305C141.499 620.55 141.499 620.795 141.499 620.959C141.58 627.008 141.58 633.139 141.58 639.27L146.327 642.05C146.245 634.938 146.327 627.907 146.245 620.959C146.081 618.506 146.245 616.299 146.409 614.092ZM308.203 636.164C308.531 635.101 308.694 634.038 308.694 632.894C308.694 628.807 306.648 624.392 303.457 622.43C303.129 622.185 302.72 621.94 302.393 621.776C301.002 620.877 299.447 619.814 297.482 619.487C297.319 619.487 297.155 619.487 296.991 619.487C295.027 618.997 293.636 620.223 292.9 620.877C286.271 624.392 283.979 629.706 286.107 636.573C287.498 641.232 292.081 642.622 295.436 643.685L295.927 643.848C299.774 644.993 307.221 639.025 308.203 636.164ZM296.746 639.107C293.39 638.126 291.181 637.308 290.526 635.183C290.199 634.038 289.953 632.976 289.953 631.995C289.953 629.052 291.59 626.845 295.027 625.046C295.436 624.801 295.764 624.556 296.173 624.229C296.337 624.229 296.5 624.229 296.746 624.229C297.728 624.392 298.71 625.046 299.774 625.782C300.183 626.027 300.592 626.354 301.002 626.599C303.129 627.907 304.521 632.24 303.702 634.692C303.047 636.082 298.383 639.352 297.237 639.434L296.746 639.107ZM867.077 603.546C867.241 623.084 867.323 640.66 866.996 658.399C866.996 663.795 868.878 667.392 873.543 670.008C877.389 672.051 881.154 674.177 884.918 676.302L884.918 670.907C881.89 669.19 878.862 667.473 875.834 665.757C872.642 664.04 871.497 662.16 871.742 658.399C872.07 640.66 871.988 623.002 871.824 603.465C871.824 600.685 872.397 599.704 874.279 598.723C877.962 596.843 881.645 594.799 885 592.919L885 587.442C881.072 589.731 876.653 592.183 872.151 594.554C867.568 596.843 866.996 600.44 867.077 603.546ZM460.668 785.763C460.668 781.839 459.768 778.896 455.349 776.362C449.538 773.01 443.728 769.659 437.917 766.307C431.37 762.546 424.741 758.704 418.194 754.944C416.639 754.045 415.166 753.145 413.611 752.246C410.338 750.284 406.9 748.322 403.381 746.524C402.972 746.279 402.481 746.279 402.072 746.279C401.663 746.197 401.253 746.279 400.844 746.442C392.169 750.366 383.986 755.353 375.965 760.094C372.365 762.22 368.764 764.427 365.081 766.47L363.935 767.124L368.682 769.822C371.955 767.942 375.147 766.062 378.421 764.1C386.032 759.522 393.888 754.862 402.072 751.02C405.182 752.573 408.292 754.372 411.238 756.17C412.793 757.069 414.348 757.969 415.903 758.868C422.531 762.628 429.079 766.389 435.626 770.149C441.436 773.501 447.247 776.852 453.139 780.204C455.676 781.676 456.003 782.902 456.085 785.599C456.003 794.755 456.003 804.075 456.003 813.312C456.003 815.601 456.003 817.808 456.003 820.097L460.75 822.795C460.75 810.369 460.75 797.943 460.832 785.599L460.832 785.763L460.668 785.763ZM333.246 678.836L337.01 676.629C341.184 674.258 346.094 671.397 351.005 668.863C355.506 666.574 356.079 662.896 355.997 659.871C355.833 640.333 355.751 622.757 356.079 605.1C356.079 604.936 356.079 604.854 356.079 604.691C356.079 599.377 354.115 596.026 349.532 593.491C338.565 587.442 327.681 581.147 316.796 574.935L315.569 574.199C314.014 573.3 312.459 572.4 310.986 571.501C307.058 569.13 302.966 566.76 298.71 564.716C298.301 564.552 297.892 564.471 297.482 564.471C297.319 564.471 297.155 564.471 296.991 564.471C292.654 564.879 289.299 567.168 286.352 569.212C285.125 570.111 283.897 570.929 282.588 571.665C278.005 574.117 273.422 576.896 269.085 579.512C262.292 583.6 255.254 587.769 248.052 591.121C237.331 596.026 236.922 604.364 237.413 612.457C238.15 624.883 238.15 637.799 237.413 650.879C237.249 654.148 237.495 657.418 237.74 660.525L237.904 663.141C238.068 665.675 239.868 666.738 241.014 667.392L241.505 667.719C247.807 671.724 254.435 675.485 260.819 679.082C266.384 682.27 272.194 685.54 277.759 688.973C279.478 690.036 281.197 690.935 282.997 691.916C285.37 693.142 287.58 694.369 289.626 695.84C294.209 699.11 298.546 699.273 303.293 696.412C313.032 690.526 323.343 684.559 333.246 678.836ZM292.163 692.08C289.871 690.445 287.416 689.137 285.043 687.829C283.406 686.929 281.688 686.03 280.133 685.049C274.486 681.534 268.675 678.264 263.028 674.994C256.727 671.397 250.18 667.719 243.96 663.713L243.387 663.386C243.06 663.223 242.651 662.896 242.569 662.814L242.405 660.116C242.16 657.01 241.914 653.985 242.078 651.042C242.814 637.799 242.814 624.719 242.078 612.13C241.669 604.609 241.914 598.968 249.934 595.29C257.382 591.856 264.502 587.605 271.458 583.436C275.795 580.82 280.296 578.123 284.797 575.67C286.271 574.853 287.662 573.954 289.053 572.973C291.754 571.174 294.209 569.376 297.237 569.049C301.165 570.929 304.93 573.136 308.612 575.343C310.167 576.242 311.722 577.223 313.277 578.123L314.505 578.858C325.389 585.153 336.356 591.366 347.322 597.497C350.514 599.214 351.496 601.094 351.414 604.854C351.25 613.438 351.168 621.94 351.168 630.687C351.168 640.088 351.25 649.652 351.332 659.789C351.332 662.569 350.759 663.55 348.877 664.531C343.803 667.146 338.811 670.008 334.637 672.378L330.873 674.585C320.888 680.308 310.658 686.275 300.592 692.325C297.482 694.369 295.191 694.287 292.163 692.08ZM815.192 804.238L814.292 804.892C810.609 807.426 808.563 814.293 810.363 818.217C812.246 822.468 816.911 825.493 821.33 825.493C825.176 825.493 830.168 822.958 832.296 818.135C832.787 817.073 833.033 815.846 833.033 814.538C833.033 810.696 830.987 806.282 827.877 804.238C826.813 803.502 825.667 802.93 824.44 802.276L822.967 801.54C822.557 801.295 822.066 801.213 821.575 801.295C821.33 801.295 821.084 801.295 820.839 801.295C818.547 801.867 816.747 803.094 815.192 804.238ZM822.23 806.527C823.294 807.099 824.276 807.672 825.258 808.244C827.468 809.633 828.941 814.048 827.959 816.255C826.649 819.116 823.539 820.751 821.248 820.751C819.038 820.751 815.928 819.198 814.537 816.173C814.374 815.765 814.292 815.274 814.292 814.702C814.292 812.576 815.437 809.633 816.829 808.652L817.893 808.08C819.12 807.181 820.184 806.445 821.412 806.118L822.23 806.527ZM622.872 816.01C622.954 815.192 623.035 814.457 623.035 813.721C623.035 805.056 615.506 802.358 612.887 801.459C612.56 801.295 612.151 801.295 611.824 801.377C611.742 801.377 611.742 801.377 611.66 801.377C610.023 801.295 608.796 802.031 608.059 802.603C607.813 802.767 607.404 803.012 607.241 803.012C599.139 805.301 600.039 811.759 600.694 816.01L600.939 817.563C601.43 821.896 604.949 823.367 607.241 824.348C607.977 824.675 608.714 825.002 609.368 825.411C610.351 826.065 612.069 826.555 614.606 825.329C618.043 823.694 622.381 819.362 622.872 816.01ZM609.041 820.015C606.668 819.034 605.768 818.462 605.604 816.991L605.358 815.274C605.195 813.884 605.031 812.658 605.031 811.759C605.031 809.388 605.849 808.244 608.55 807.508C609.45 807.263 610.105 806.854 610.596 806.445C610.842 806.282 611.333 805.955 611.414 805.955C611.496 805.955 611.578 805.955 611.66 805.955C616.979 807.917 618.862 810.614 618.207 815.274C617.961 817.073 613.297 821.323 611.905 821.242C611.087 820.833 610.105 820.424 609.041 820.015ZM872.07 958.333C867.65 960.704 867.159 964.219 867.077 967.244C867.159 982.531 867.323 1002.72 867.077 1023.08C867.159 1027.82 868.714 1030.68 873.052 1033.13C876.98 1035.42 880.99 1037.71 884.918 1040L884.918 1034.52C881.726 1032.72 878.535 1030.84 875.343 1029.05C872.561 1027.49 871.742 1026.18 871.824 1023.24C872.07 1002.8 871.988 982.613 871.824 967.244C871.906 964.464 872.397 963.483 874.279 962.503C877.062 961.031 879.762 959.478 882.545 957.843C883.363 957.352 884.182 956.944 885 956.453L885 950.976C883.363 951.875 881.808 952.774 880.172 953.755C877.471 955.39 874.77 956.862 872.07 958.333ZM775.746 968.879C775.746 968.715 775.746 968.634 775.746 968.47C775.746 963.156 773.782 959.805 769.199 957.271C758.069 951.14 746.939 944.681 736.054 938.469L735.154 937.978C733.599 937.079 732.044 936.18 730.489 935.28C726.561 932.91 722.469 930.539 718.213 928.495C717.804 928.332 717.395 928.25 716.986 928.25C716.822 928.25 716.659 928.25 716.495 928.25C712.157 928.659 708.802 930.948 705.856 932.991C704.628 933.891 703.401 934.708 702.091 935.444C697.508 937.896 692.925 940.676 688.588 943.292C685.396 945.172 682.205 947.134 678.931 948.932L683.678 951.63C686.133 950.159 688.588 948.769 691.043 947.297C695.381 944.681 699.882 941.984 704.383 939.531C705.856 938.714 707.247 937.815 708.638 936.834C711.339 935.035 713.794 933.237 716.822 932.91C720.75 934.79 724.515 936.997 728.198 939.204C729.753 940.104 731.308 941.084 732.862 941.984L733.763 942.474C744.565 948.687 755.777 955.145 766.907 961.276C770.099 962.993 771.163 964.791 770.999 968.634C770.835 977.299 770.754 986.046 770.754 994.63C770.754 997.082 770.754 999.453 770.754 1001.91L775.5 1004.6C775.5 993.076 775.5 980.978 775.746 968.879ZM623.445 875.195C636.457 867.429 649.96 859.336 663.545 851.979C668.783 849.118 671.075 845.603 671.075 839.962C671.075 839.717 671.075 839.472 671.075 839.145C670.747 829.662 670.584 819.443 670.502 806.854C670.584 801.213 670.665 795.082 670.993 787.153C671.238 782.084 669.274 778.487 665.1 776.035C654.298 769.904 643.495 763.691 632.692 757.478L615.916 747.832C615.261 747.423 614.524 747.178 613.788 746.933L613.051 746.687C612.642 746.524 612.315 746.524 611.905 746.524C611.742 746.524 611.496 746.524 611.333 746.524C607.814 747.014 605.113 748.895 602.74 750.53C601.676 751.265 600.694 752.001 599.548 752.573C593.655 755.761 587.763 759.195 582.116 762.547C574.587 766.961 566.731 771.539 558.792 775.544C554.046 777.915 551.754 781.921 552.163 787.643C552.654 797.862 552.736 807.917 552.736 817.318C552.736 824.675 552.573 831.951 552.163 839.145C551.754 845.194 554.046 848.954 559.611 851.979C573.196 859.336 586.699 867.429 599.712 875.277L605.031 878.384C609.45 881 613.542 881 617.961 878.384L623.445 875.195ZM607.486 874.378L602.085 871.19C588.991 863.342 575.406 855.249 561.82 847.81C558.138 845.766 556.828 843.886 556.828 840.289C556.828 839.962 556.828 839.717 556.828 839.39C557.237 832.114 557.319 824.675 557.401 817.318C557.401 807.835 557.319 797.698 556.828 787.398C556.665 783.474 557.81 781.185 560.838 779.714C568.94 775.708 576.797 771.048 584.408 766.552C590.055 763.2 595.865 759.849 601.676 756.661C602.903 756.007 604.131 755.189 605.277 754.372C607.404 752.9 609.368 751.592 611.66 751.184L612.069 751.347C612.56 751.511 613.051 751.674 613.46 751.919L630.237 761.566C641.04 767.778 651.843 773.991 662.727 780.122C665.428 781.676 666.41 783.556 666.246 786.907C665.837 795.001 665.755 801.213 665.755 806.854C665.837 819.525 666.001 829.825 666.328 839.308C666.492 843.641 665.264 845.603 661.336 847.81C647.669 855.249 634.165 863.342 621.071 871.19L615.67 874.378C612.642 876.095 610.432 876.095 607.486 874.378ZM872.07 230.857C867.65 233.227 867.159 236.742 867.077 239.767C867.159 255.054 867.323 275.246 867.077 295.601C867.159 300.261 868.714 303.204 873.052 305.656C877.062 307.863 880.99 310.152 884.918 312.441L884.918 306.964C881.727 305.166 878.535 303.285 875.343 301.487C872.561 299.934 871.742 298.708 871.824 295.683C872.07 275.246 871.988 255.054 871.824 239.685C871.906 236.906 872.397 235.925 874.279 234.944C877.062 233.473 879.762 231.919 882.545 230.284C883.363 229.794 884.182 229.385 885 228.895L885 223.418C883.363 224.317 881.808 225.216 880.172 226.197C877.471 227.832 874.77 229.385 872.07 230.857ZM705.692 272.793C707.083 277.453 711.666 278.843 715.022 279.906L715.513 280.069C719.359 281.213 726.807 275.246 727.789 272.466C728.116 271.404 728.28 270.341 728.28 269.197C728.28 265.109 726.234 260.695 723.042 258.733C722.715 258.488 722.305 258.242 721.978 258.079C720.587 257.179 719.032 256.117 717.068 255.79C716.904 255.79 716.74 255.79 716.495 255.79C714.531 255.299 713.14 256.525 712.403 257.179C705.938 260.613 703.564 265.927 705.692 272.793ZM716.413 260.368C717.395 260.531 718.377 261.185 719.441 261.921C719.85 262.166 720.259 262.493 720.669 262.738C722.796 264.046 724.188 268.379 723.369 270.831C722.715 272.221 718.05 275.491 716.904 275.573L716.413 275.409C713.058 274.428 710.848 273.611 710.193 271.485C709.866 270.341 709.702 269.278 709.702 268.297C709.702 265.354 711.339 263.147 714.776 261.349C715.185 261.103 715.513 260.858 715.922 260.531C716.086 260.449 716.249 260.449 716.413 260.368ZM795.469 396.56C791.868 398.686 788.267 400.893 784.666 402.936L780.083 405.552C775.991 407.923 771.818 410.212 767.726 412.664C763.388 415.28 762.488 418.142 762.488 422.065L762.488 422.229C762.57 440.622 762.57 459.261 762.488 477.572C762.57 481.823 763.388 484.685 767.889 487.137C776.892 492.042 785.894 497.356 794.65 502.506C797.924 504.468 801.198 506.43 804.553 508.31L816.092 515.095C819.693 517.22 823.376 517.139 826.895 515.095C832.132 511.907 837.452 508.882 842.771 505.857C847.764 502.996 852.756 500.135 857.666 497.192C860.203 495.721 862.74 494.249 865.277 492.778C868.551 490.979 871.824 489.099 875.098 487.055C879.435 484.358 880.417 481.496 880.335 477.491C880.253 459.097 880.253 440.459 880.335 422.147L880.335 421.984C880.335 418.06 879.435 415.117 875.016 412.583C869.205 409.313 863.477 405.961 857.666 402.609C851.037 398.767 844.408 395.007 837.779 391.165C836.224 390.265 834.751 389.366 833.196 388.467C829.923 386.505 826.486 384.543 822.967 382.745C822.557 382.499 822.066 382.499 821.657 382.499C821.248 382.418 820.839 382.499 820.43 382.663C811.673 386.832 803.489 391.819 795.469 396.56ZM830.741 392.718C832.296 393.617 833.851 394.516 835.406 395.416C842.035 399.176 848.664 403.018 855.293 406.779C861.103 410.13 866.832 413.4 872.642 416.752C875.179 418.223 875.752 419.286 875.589 422.147C875.507 431.303 875.507 440.622 875.507 449.86C875.507 459.097 875.507 468.417 875.589 477.573C875.67 480.27 875.179 481.496 872.642 483.05C869.451 485.012 866.177 486.892 862.986 488.69C860.367 490.162 857.748 491.633 855.211 493.105C850.301 496.048 845.39 498.909 840.398 501.688C835.079 504.713 829.677 507.819 824.44 511.008C822.476 512.234 820.511 512.234 818.465 511.008L806.926 504.222C803.653 502.26 800.379 500.38 797.024 498.418C788.267 493.268 779.183 487.873 770.099 482.886C767.562 481.496 767.071 480.434 767.153 477.491C767.235 459.097 767.235 440.459 767.153 422.065C767.153 419.368 767.562 418.06 770.099 416.588C774.191 414.218 778.283 411.847 782.375 409.558L786.958 406.942C790.64 404.817 794.241 402.691 797.924 400.484C805.535 395.906 813.391 391.246 821.575 387.404C824.685 389.121 827.795 390.919 830.741 392.718ZM702.009 571.746C697.427 574.199 692.844 576.978 688.424 579.594C681.632 583.682 674.594 587.851 667.392 591.202C656.671 596.107 656.262 604.446 656.753 612.539C657.489 624.964 657.489 637.881 656.753 650.96C656.589 654.23 656.835 657.418 657.08 660.525L657.244 663.223C657.408 665.757 659.208 666.819 660.354 667.473L660.845 667.8C667.146 671.806 673.775 675.567 680.159 679.163C685.724 682.352 691.534 685.622 697.099 689.055C698.818 690.118 700.536 691.017 702.337 691.998C704.71 693.224 706.92 694.45 708.966 695.922C713.549 699.192 717.886 699.355 722.633 696.494C732.535 690.526 742.519 684.722 752.586 678.918L756.596 676.629C760.769 674.259 765.68 671.397 770.59 668.863C775.091 666.574 775.582 662.814 775.582 659.871C775.418 642.949 775.337 623.82 775.664 605.1C775.664 604.936 775.664 604.854 775.664 604.691C775.664 599.377 773.7 596.026 769.117 593.491C757.905 587.279 746.611 580.82 735.727 574.526L735.154 574.199C733.599 573.3 732.044 572.4 730.489 571.501C726.561 569.13 722.469 566.76 718.213 564.716C717.804 564.553 717.395 564.471 716.986 564.471C716.822 564.471 716.659 564.471 716.495 564.471C712.157 564.88 708.802 567.168 705.856 569.212C704.628 570.193 703.401 571.011 702.009 571.746ZM728.116 575.589C729.671 576.488 731.226 577.469 732.863 578.368L733.435 578.695C744.402 584.99 755.695 591.448 766.907 597.661C770.099 599.377 771.163 601.257 770.999 605.018C770.836 613.683 770.754 622.43 770.754 631.014C770.754 641.069 770.836 650.879 770.917 659.953C770.917 662.569 770.344 663.713 768.462 664.694C763.388 667.31 758.396 670.089 754.222 672.542L750.212 674.831C740.146 680.635 730.162 686.439 720.178 692.407C716.986 694.287 714.776 694.205 711.666 691.998C709.375 690.363 706.92 689.055 704.546 687.747C702.91 686.848 701.191 685.949 699.636 684.968C693.989 681.452 688.179 678.182 682.532 674.913C676.23 671.316 669.683 667.637 663.464 663.631L662.891 663.223C662.563 663.059 662.154 662.732 662.072 662.732L661.909 659.953C661.663 656.846 661.499 653.903 661.581 650.96C662.318 637.717 662.318 624.556 661.581 612.048C661.172 604.527 661.418 598.887 669.438 595.208C676.885 591.775 684.005 587.524 690.961 583.355C695.299 580.739 699.8 578.041 704.301 575.589C705.774 574.771 707.165 573.872 708.557 572.891C711.257 571.092 713.712 569.294 716.74 568.967C720.669 571.174 724.433 573.381 728.116 575.589ZM607.241 439.233C599.139 441.522 600.039 447.98 600.694 452.231L600.939 453.784C601.43 458.116 604.949 459.588 607.241 460.569C607.977 460.896 608.714 461.223 609.368 461.55C610.351 462.204 612.069 462.694 614.606 461.468C618.043 459.915 622.463 455.501 622.872 452.231C622.954 451.413 623.035 450.677 623.035 449.942C623.035 441.276 615.506 438.579 612.888 437.679C612.56 437.516 612.151 437.516 611.824 437.598C611.742 437.598 611.742 437.598 611.66 437.598C610.023 437.516 608.796 438.252 608.059 438.824C607.732 438.987 607.404 439.151 607.241 439.233ZM611.66 442.257C616.979 444.219 618.862 446.917 618.207 451.577C617.962 453.375 613.297 457.626 611.905 457.544C611.087 456.972 610.105 456.563 609.041 456.154C606.668 455.173 605.768 454.601 605.604 453.13L605.358 451.413C605.195 450.023 605.031 448.879 605.031 447.898C605.031 445.527 605.849 444.383 608.55 443.647C609.45 443.402 610.105 442.993 610.596 442.584C610.842 442.421 611.333 442.094 611.414 442.094C611.496 442.257 611.578 442.257 611.66 442.257ZM412.711 454.438C413.202 453.375 413.447 452.149 413.447 450.841C413.447 446.999 411.401 442.584 408.292 440.541C407.228 439.805 406.082 439.233 404.936 438.579L403.463 437.761C403.054 437.516 402.563 437.434 402.072 437.516C401.826 437.516 401.581 437.516 401.335 437.516C398.962 438.006 397.243 439.314 395.607 440.377L394.706 441.031C391.024 443.565 388.978 450.432 390.778 454.356C392.742 458.607 397.325 461.632 401.745 461.632C405.591 461.795 410.583 459.261 412.711 454.438ZM395.034 452.476C394.87 452.067 394.788 451.577 394.788 451.004C394.788 448.879 395.934 445.936 397.325 444.955L398.307 444.301C399.453 443.483 400.599 442.666 401.826 442.339L402.645 442.829C403.709 443.402 404.691 443.892 405.673 444.546C407.882 446.018 409.356 450.35 408.373 452.558C407.146 455.419 403.954 457.054 401.663 457.054C399.535 457.054 396.425 455.419 395.034 452.476ZM611.251 382.663C607.732 383.153 605.031 385.034 602.658 386.669C601.594 387.404 600.612 388.14 599.466 388.712C593.574 391.9 587.681 395.334 582.034 398.686C574.505 403.1 566.649 407.678 558.711 411.684C553.964 414.054 551.754 418.06 552.082 423.782C552.573 434.001 552.655 444.056 552.655 453.457C552.655 460.814 552.491 468.171 552.082 475.284C551.672 481.333 553.964 485.093 559.529 488.118C573.114 495.475 586.617 503.568 599.63 511.416L605.031 514.604C609.45 517.22 613.542 517.22 617.962 514.604L623.363 511.334C636.375 503.568 649.878 495.475 663.464 488.118C668.701 485.257 670.993 481.742 670.993 476.101C670.993 475.856 670.993 475.611 670.993 475.284C670.665 465.801 670.502 455.582 670.42 442.993C670.42 437.352 670.584 431.221 670.911 423.292C671.156 418.223 669.192 414.626 665.019 412.174C654.134 405.961 643.25 399.748 632.365 393.454L615.834 383.971C615.179 383.562 614.442 383.317 613.706 383.072L612.969 382.826C612.56 382.663 612.233 382.663 611.824 382.663C611.66 382.663 611.414 382.663 611.251 382.663ZM612.151 387.568C612.642 387.731 613.133 387.895 613.542 388.14L630.074 397.623C640.958 403.917 651.843 410.13 662.809 416.343C665.51 417.896 666.492 419.777 666.328 423.128C665.919 431.221 665.837 437.352 665.837 443.075C665.919 455.746 666.082 466.046 666.41 475.529C666.573 479.861 665.346 481.823 661.418 484.031C647.751 491.47 634.247 499.563 621.153 507.411L615.752 510.681C612.806 512.479 610.596 512.479 607.65 510.681L602.249 507.492C589.154 499.645 575.651 491.551 561.984 484.112C558.301 482.069 556.992 480.188 556.992 476.591C556.992 476.346 556.992 476.019 556.992 475.692C557.401 468.417 557.483 460.978 557.565 453.62C557.565 444.137 557.483 434.001 556.992 423.7C556.828 419.777 557.974 417.488 561.002 416.016C569.104 412.01 576.96 407.351 584.571 402.855C590.218 399.503 596.029 396.151 601.839 392.963C603.067 392.309 604.294 391.492 605.44 390.674C607.568 389.203 609.532 387.895 611.824 387.486L612.151 387.568ZM423.023 505.857C428.015 502.996 433.007 500.135 437.917 497.192C440.454 495.721 442.991 494.249 445.61 492.778C448.883 490.897 452.239 489.017 455.431 487.055C459.85 484.358 460.504 481.415 460.668 477.491C460.586 459.097 460.586 440.459 460.668 422.147L460.668 421.984C460.668 418.06 459.768 415.117 455.349 412.583C449.538 409.231 443.728 405.879 437.917 402.528C431.37 398.767 424.741 394.925 418.194 391.165C416.639 390.265 415.166 389.366 413.611 388.467C410.338 386.505 406.9 384.543 403.381 382.745C402.972 382.499 402.481 382.499 402.072 382.499C401.663 382.418 401.254 382.499 400.844 382.663C392.169 386.587 383.904 391.573 375.965 396.315C372.365 398.44 368.764 400.647 365.163 402.691L360.498 405.389C356.406 407.678 352.314 410.048 348.304 412.419C343.967 415.035 342.985 417.978 342.985 421.82L342.985 421.984C343.066 440.377 343.066 459.016 342.985 477.327C342.821 481.333 343.885 484.439 348.386 486.892C357.47 491.797 366.472 497.192 375.229 502.342C378.502 504.304 381.776 506.184 385.05 508.146L396.589 514.931C400.19 517.057 403.872 517.057 407.391 514.931C412.384 511.988 417.703 508.882 423.023 505.857ZM398.717 511.089L387.177 504.304C383.904 502.424 380.63 500.462 377.357 498.5C368.6 493.268 359.516 487.954 350.35 482.968C347.813 481.578 347.404 480.515 347.404 477.572C347.486 459.179 347.486 440.541 347.404 422.147C347.322 419.368 347.813 418.142 350.35 416.67C354.36 414.299 358.452 412.01 362.544 409.722L367.291 407.024C370.973 404.898 374.574 402.773 378.257 400.566C385.868 395.988 393.724 391.328 401.908 387.486C405.018 389.039 408.128 390.838 411.074 392.636C412.629 393.535 414.184 394.435 415.739 395.334C422.368 399.094 428.915 402.855 435.462 406.615C441.272 409.967 447.083 413.318 452.975 416.67C455.512 418.142 455.84 419.368 455.922 422.065C455.84 431.221 455.84 440.541 455.84 449.778C455.84 459.016 455.84 468.335 455.922 477.491C456.003 480.188 455.512 481.415 452.894 482.968C449.702 484.93 446.51 486.728 443.237 488.608C440.618 490.08 437.999 491.551 435.462 493.105C430.552 496.048 425.56 498.909 420.649 501.688C415.33 504.713 409.928 507.819 404.691 511.007C402.727 512.234 400.844 512.234 398.717 511.089ZM820.921 204.615C820.266 203.961 819.448 203.226 818.384 202.653C780.574 180.99 749.476 163.006 720.587 146.166C719.85 145.757 719.196 145.512 718.541 145.266C718.786 128.835 718.95 112.322 718.95 95.7269L714.203 98.5063C714.122 114.12 714.04 129.734 713.794 145.266C712.976 145.593 712.239 146.002 711.585 146.493C708.311 149.108 704.628 151.07 700.7 153.196C698.981 154.177 697.181 155.076 695.462 156.057C674.43 168.401 652.906 180.663 632.038 192.598L611.333 204.452L606.422 201.591C601.676 198.811 596.929 196.032 592.182 193.252C585.062 189.165 578.024 185.078 570.904 181.072L566.158 183.77C574.014 188.266 581.953 192.762 589.809 197.34C594.556 200.119 599.302 202.899 604.049 205.596L609.041 208.539L609.041 327.401L595.047 335.412C587.681 339.663 580.316 343.833 572.95 348.083C553.064 359.446 532.44 371.218 512.472 383.235C507.234 386.423 504.37 385.442 499.541 382.581C472.944 366.967 444.71 350.699 407.964 329.772C404.854 328.055 403.872 326.338 403.872 322.905L403.872 322.823C403.954 307.618 403.954 292.495 403.954 277.29L399.208 279.987C399.208 294.211 399.208 308.517 399.126 322.741L399.126 322.823C399.126 324.458 399.371 325.766 399.78 327.074L397.98 328.055C396.18 329.118 394.297 330.099 392.497 331.162L375.229 341.135C349.614 355.931 323.916 370.728 298.301 385.606C296.582 386.587 295.6 386.342 294.7 385.606C291.099 382.745 287.007 380.537 283.161 378.494C281.442 377.594 279.724 376.695 278.087 375.714C270.639 371.382 263.192 367.049 255.663 362.716L250.916 365.414C259.182 370.155 267.448 374.979 275.632 379.72C277.35 380.701 279.069 381.682 280.869 382.581C284.716 384.625 288.398 386.669 291.754 389.284C292.327 389.775 293.063 390.184 293.963 390.511C294.618 429.832 294.618 469.643 293.963 508.882C293.145 509.209 292.408 509.618 291.754 510.108C288.48 512.724 284.798 514.686 280.869 516.812C279.151 517.793 277.35 518.692 275.632 519.673C254.681 531.935 233.239 544.197 212.534 556.051L191.502 568.068L186.1 564.961C181.517 562.264 176.935 559.566 172.352 556.95C163.922 552.045 155.411 547.222 146.9 542.399C128.568 531.935 109.582 521.144 91.2497 510.026C90.6769 509.699 90.0222 509.372 89.2856 509.045C89.0401 492.369 88.9583 475.61 88.9583 458.852L84.2117 461.55C84.2936 477.409 84.2935 493.268 84.539 508.964C83.8843 509.127 83.2296 509.454 82.493 509.863C55.0772 525.886 27.5796 541.745 4.21652e-05 557.686L4.74662 560.383C31.5077 544.933 58.2689 529.482 84.9482 513.95C86.585 513.051 87.4852 513.215 88.8765 514.032C107.29 525.232 126.277 536.022 144.608 546.486C153.12 551.309 161.549 556.132 170.06 561.037C174.643 563.735 179.226 566.351 183.809 569.049L189.292 572.237L189.292 666.819L194.039 669.517L194.039 572.237L214.908 560.302C235.613 548.448 257.054 536.186 278.087 523.924C279.723 522.943 281.442 522.043 283.161 521.144C287.089 519.019 291.099 516.893 294.7 514.032C295.6 513.296 296.582 513.051 298.301 514.032C327.517 531.117 359.598 549.593 396.098 570.52C398.389 571.828 399.126 573.3 399.126 576.324C399.044 613.111 399.126 649.816 398.962 686.602C398.88 688.237 399.208 689.627 399.617 690.935L398.062 691.834C396.18 692.897 394.297 693.96 392.415 695.023L376.047 704.424C355.833 716.114 335.537 727.804 315.323 739.575L320.07 742.273C339.466 730.992 358.943 719.71 378.421 708.511L394.788 699.11C396.671 698.047 398.471 696.984 400.353 695.922L402.072 694.941C402.972 695.922 404.036 696.821 405.427 697.557C441.436 718.076 470.489 734.916 496.923 750.366C499.296 751.756 501.669 752.9 504.206 753.391C503.797 784.864 503.797 816.664 504.042 848.3L508.789 850.998C508.544 818.462 508.462 785.763 508.953 753.391L508.953 753.309C510.753 752.982 512.635 752.246 514.763 750.938C534.732 738.921 555.273 727.15 575.16 715.787C582.525 711.617 589.891 707.367 597.256 703.116L611.169 695.104L632.12 707.04C652.825 718.893 674.266 731.155 695.299 743.417C697.017 744.398 698.736 745.379 700.536 746.279C704.383 748.322 708.066 750.284 711.339 752.982C711.912 753.472 712.648 753.881 713.549 754.208C714.203 793.529 714.203 833.34 713.549 872.58C712.73 872.907 711.994 873.315 711.339 873.806C708.065 876.422 704.383 878.384 700.536 880.427C698.736 881.408 697.017 882.308 695.299 883.289C674.266 895.633 652.743 907.895 631.874 919.83L630.155 920.811L634.902 923.509C655.525 911.737 676.803 899.556 697.672 887.376C699.309 886.395 701.027 885.496 702.746 884.597C706.592 882.471 710.684 880.346 714.285 877.484C715.185 876.749 716.167 876.503 717.886 877.484C746.857 894.325 777.874 912.309 815.683 933.972C817.974 935.28 818.711 936.752 818.711 939.777C818.629 969.696 818.629 999.616 818.629 1029.45L823.376 1032.15C823.458 1001.33 823.376 970.514 823.458 939.695C823.458 938.469 823.376 937.161 823.048 935.853L842.608 924.571C856.929 916.887 870.924 908.712 884.918 900.619L884.918 895.142C870.105 903.726 855.375 912.227 840.562 920.811L821.002 932.092C820.266 931.438 819.447 930.784 818.384 930.13C780.574 908.467 749.476 890.482 720.587 873.642C719.85 873.234 719.195 872.988 718.541 872.743C718.868 853.123 719.032 833.34 719.032 813.557C719.032 793.774 718.868 773.991 718.541 754.372C719.196 754.126 719.85 753.881 720.587 753.472C746.366 738.431 772.145 723.553 798.006 708.675L814.701 699.028C816.583 697.884 818.547 696.821 820.511 695.758L822.066 694.941C822.967 695.922 824.03 696.821 825.422 697.557C847.518 710.228 866.996 721.427 884.918 731.809L884.918 726.332C867.65 716.359 848.909 705.568 827.713 693.469C824.603 691.753 823.621 690.036 823.621 686.603L823.621 686.521C823.785 649.734 823.703 613.029 823.785 576.243C823.785 575.016 823.703 573.708 823.376 572.4L843.672 560.71C857.421 552.781 871.169 544.851 884.918 536.922L884.918 531.445C870.351 539.865 855.866 548.285 841.298 556.623L821.002 568.313C820.266 567.659 819.448 567.005 818.384 566.351C780.902 544.851 749.885 526.948 720.587 509.863C719.85 509.454 719.196 509.209 718.541 508.964C718.868 489.344 719.032 469.561 719.032 449.778C719.032 429.995 718.868 410.212 718.541 390.592C719.196 390.347 719.85 390.102 720.587 389.693C746.039 374.815 771.572 360.1 797.106 345.386L814.701 335.249C816.583 334.186 818.465 333.124 820.348 332.061L822.066 331.08C822.967 332.061 824.03 332.96 825.422 333.696C847.927 346.53 867.241 357.648 885 367.867L885 362.553C867.896 352.661 849.319 342.034 827.795 329.69C824.685 327.973 823.703 326.257 823.703 322.823L823.703 322.742C823.867 285.955 823.785 249.25 823.867 212.463C823.867 211.237 823.785 209.929 823.458 208.621L843.59 197.013C857.421 189.083 871.169 181.072 885 173.061L885 167.584C870.433 176.004 855.784 184.505 841.217 192.925L820.921 204.615ZM398.798 566.351C362.217 545.423 330.218 526.948 301.002 509.863C300.265 509.454 299.61 509.209 298.956 508.964C299.283 489.344 299.447 469.561 299.447 449.778C299.447 429.995 299.283 410.212 298.956 390.592C299.61 390.347 300.265 390.102 301.002 389.693C326.617 374.815 352.232 360.019 377.848 345.222L395.116 335.249C396.916 334.186 398.717 333.205 400.517 332.143L402.399 331.08C403.3 332.061 404.363 332.96 405.755 333.696C442.418 354.623 470.652 370.891 497.25 386.505C499.623 387.895 501.997 389.039 504.534 389.53C503.961 429.096 503.961 469.234 504.534 508.882C503.879 509.045 503.224 509.373 502.488 509.781C475.154 525.64 447.82 541.418 420.404 557.195L401.335 568.231C400.599 567.659 399.78 567.005 398.798 566.351ZM595.21 699.192C587.845 703.443 580.479 707.612 573.196 711.781C553.309 723.144 532.686 734.916 512.635 747.014C507.398 750.203 504.534 749.222 499.705 746.36C473.271 730.91 444.137 714.07 408.128 693.551C405.018 691.834 404.036 690.118 404.036 686.684L404.036 686.602C404.2 649.816 404.118 613.111 404.2 576.324C404.282 575.098 404.2 573.708 403.79 572.4L422.859 561.446C450.275 545.669 477.609 529.891 504.943 514.032C506.579 513.051 507.48 513.296 508.871 514.114C527.285 525.232 546.189 536.104 564.603 546.568C573.114 551.391 581.625 556.296 590.055 561.119C594.883 563.899 599.793 566.76 604.54 569.621L609.287 572.4L609.287 691.18L595.21 699.192ZM718.213 514.032C747.512 531.118 778.61 549.02 816.01 570.52C818.302 571.828 819.038 573.3 819.038 576.324C818.956 613.111 819.038 649.816 818.875 686.603L818.875 686.684C818.875 688.319 819.12 689.709 819.529 690.935L818.138 691.753C816.174 692.815 814.21 693.96 812.328 695.023L795.633 704.669C769.772 719.547 743.993 734.425 718.213 749.467C716.495 750.448 715.513 750.203 714.613 749.467C711.012 746.606 706.92 744.398 703.073 742.355C701.355 741.455 699.636 740.556 697.999 739.575C676.967 727.313 655.525 715.051 634.82 703.197L613.951 691.262L613.951 572.319L634.902 560.302C655.607 548.448 677.049 536.186 697.999 524.005C699.636 523.024 701.355 522.125 703.073 521.226C706.92 519.101 711.012 516.975 714.613 514.114C715.349 513.378 716.331 512.888 718.213 514.032ZM713.876 390.674C714.531 429.995 714.531 469.806 713.876 509.046C713.058 509.372 712.321 509.781 711.666 510.272C708.393 512.888 704.71 514.85 700.864 516.975C699.063 517.956 697.345 518.855 695.626 519.836C674.675 532.098 653.316 544.279 632.611 556.132L611.496 568.231L606.913 565.534C602.085 562.754 597.256 559.893 592.346 557.032C583.917 552.127 575.406 547.304 566.894 542.399C548.563 531.935 529.658 521.144 511.326 510.027C510.753 509.699 510.099 509.372 509.362 509.045C508.789 469.479 508.789 429.259 509.362 389.693L509.362 389.611C511.162 389.284 513.045 388.549 515.173 387.241C535.141 375.224 555.683 363.452 575.569 352.089C582.935 347.92 590.3 343.669 597.666 339.418L611.578 331.407L632.529 343.342C653.234 355.196 674.675 367.458 695.708 379.72C697.427 380.701 699.227 381.682 700.946 382.581C704.792 384.625 708.475 386.587 711.748 389.203C712.239 389.939 712.976 390.347 713.876 390.674ZM819.038 212.545C818.957 249.332 819.038 286.118 818.875 322.823L818.875 322.905C818.875 324.54 819.12 325.848 819.529 327.156L817.974 328.055C816.092 329.118 814.21 330.181 812.328 331.243L794.732 341.38C769.199 356.095 743.665 370.809 718.213 385.688C716.495 386.669 715.513 386.423 714.613 385.688C711.012 382.826 707.002 380.619 703.073 378.575C701.355 377.676 699.636 376.777 697.999 375.796C676.967 363.534 655.525 351.272 634.82 339.418L613.951 327.483L613.951 208.539L634.575 196.768C655.362 184.832 676.967 172.57 697.999 160.226C699.636 159.245 701.355 158.346 703.073 157.447C706.92 155.321 711.012 153.196 714.613 150.335C715.431 149.681 716.413 149.272 718.213 150.335C747.184 167.175 778.201 185.159 816.01 206.823C818.302 208.049 819.038 209.52 819.038 212.545ZM705.692 636.573C707.083 641.232 711.666 642.622 715.022 643.685L715.513 643.848C719.359 645.074 726.806 639.025 727.789 636.246C728.116 635.183 728.28 634.12 728.28 632.976C728.28 628.888 726.234 624.474 723.042 622.512C722.715 622.267 722.305 622.021 721.978 621.858C720.587 620.959 719.032 619.896 717.068 619.569C716.904 619.569 716.74 619.569 716.495 619.569C714.531 619.079 713.139 620.305 712.403 620.959C705.938 624.392 703.564 629.706 705.692 636.573ZM716.413 624.147C717.395 624.31 718.377 624.964 719.441 625.7C719.85 625.945 720.259 626.272 720.669 626.518C722.796 627.826 724.269 632.076 723.369 634.611C722.715 636 718.05 639.27 716.904 639.352L716.413 639.189C713.058 638.208 710.848 637.39 710.193 635.265C709.866 634.12 709.702 633.057 709.702 632.076C709.702 629.134 711.339 626.926 714.776 625.128C715.185 624.883 715.513 624.637 715.922 624.31C716.086 624.147 716.249 624.147 716.413 624.147ZM702.01 207.967C697.427 210.42 692.844 213.199 688.506 215.815C681.714 219.902 674.675 224.072 667.474 227.423C656.753 232.328 656.344 240.666 656.835 248.759C657.571 261.185 657.571 274.101 656.835 287.181C656.671 290.451 656.917 293.639 657.162 296.746L657.326 299.443C657.489 301.977 659.29 303.04 660.436 303.694L660.927 304.021C667.228 308.027 673.857 311.787 680.159 315.384C685.724 318.572 691.534 321.842 697.099 325.276C698.818 326.338 700.536 327.238 702.337 328.219C704.71 329.445 706.92 330.671 708.966 332.143C713.549 335.412 717.886 335.576 722.633 332.715C732.453 326.747 742.438 321.025 752.34 315.302L756.514 312.85C760.688 310.479 765.598 307.618 770.508 305.084C775.009 302.795 775.5 299.035 775.5 296.092C775.337 279.17 775.255 260.041 775.582 241.239C775.582 241.075 775.582 240.993 775.582 240.83C775.582 235.516 773.618 232.165 769.035 229.63C757.905 223.499 746.939 217.205 735.972 210.828L735.072 210.338C733.517 209.439 731.962 208.539 730.407 207.64C726.479 205.269 722.387 202.899 718.132 200.855C717.722 200.692 717.313 200.61 716.904 200.61C716.74 200.61 716.577 200.61 716.413 200.61C712.076 201.019 708.72 203.307 705.774 205.351C704.628 206.414 703.401 207.313 702.01 207.967ZM728.116 211.809C729.671 212.708 731.226 213.69 732.781 214.589L733.681 215.079C744.729 221.374 755.695 227.75 766.825 233.881C770.017 235.598 771.081 237.396 770.917 241.239C770.754 249.904 770.672 258.651 770.672 267.234C770.672 277.29 770.754 287.099 770.836 296.173C770.672 298.871 770.263 299.934 768.38 300.915C763.306 303.531 758.314 306.392 754.141 308.763L749.967 311.215C739.982 317.019 729.998 322.742 720.178 328.709C717.068 330.589 714.776 330.508 711.666 328.3C709.375 326.665 706.92 325.357 704.546 324.049C702.91 323.15 701.191 322.251 699.636 321.27C693.989 317.755 688.179 314.485 682.532 311.215C676.23 307.618 669.683 303.939 663.464 299.934L662.891 299.525C662.563 299.362 662.154 299.035 662.072 299.035L661.909 296.255C661.663 293.149 661.418 290.206 661.581 287.263C662.318 274.02 662.318 260.94 661.581 248.351C661.172 240.83 661.418 235.189 669.438 231.511C676.885 228.077 684.005 223.826 690.961 219.657C695.299 217.041 699.8 214.343 704.301 211.891C705.774 211.074 707.165 210.174 708.557 209.193C711.257 207.395 713.712 205.596 716.74 205.269C720.669 207.395 724.433 209.684 728.116 211.809ZM139.944 488.2C153.529 495.557 167.032 503.65 180.126 511.498L185.446 514.686C189.865 517.302 193.957 517.302 198.376 514.686L203.778 511.498C216.872 503.732 230.293 495.639 243.878 488.2C249.116 485.339 251.407 481.823 251.407 476.183C251.407 475.938 251.407 475.692 251.407 475.365C251.08 465.964 250.916 455.991 250.835 443.075C250.835 437.352 250.998 431.303 251.326 423.373C251.571 418.142 249.689 414.708 245.433 412.256C234.631 406.125 223.91 399.993 213.189 393.781L207.706 390.592L202.959 393.29L210.816 397.786C221.536 403.999 232.339 410.13 243.06 416.261C245.761 417.815 246.743 419.695 246.579 423.046C246.17 431.058 246.006 437.189 246.088 442.993C246.17 455.991 246.333 466.046 246.661 475.447C246.825 479.78 245.597 481.742 241.669 483.949C228.002 491.388 214.498 499.481 201.404 507.329L196.003 510.517C193.057 512.315 190.847 512.315 187.901 510.517L182.581 507.329C169.487 499.481 155.902 491.388 142.235 483.949C138.552 481.905 137.243 480.025 137.243 476.428C137.243 476.183 137.243 475.856 137.243 475.529C137.652 468.253 137.734 460.814 137.816 453.457C137.816 446.345 137.652 438.742 137.488 431.14L132.824 433.837C132.987 440.541 133.069 447.244 133.069 453.538C133.069 460.814 132.906 468.171 132.578 475.365C132.087 481.415 134.297 485.093 139.944 488.2ZM495.122 269.033C495.204 271.567 496.595 274.347 499.132 276.636C501.587 279.006 504.534 280.314 506.989 280.232C512.308 279.987 516.891 274.51 517.71 269.442C517.873 268.543 517.955 267.725 517.955 266.908C517.955 260.122 512.472 257.67 508.38 255.871C507.971 255.708 507.562 255.626 507.152 255.708C506.825 255.708 506.416 255.708 506.088 255.871C497.086 259.223 494.877 260.858 495.122 269.033ZM513.045 268.624C512.554 271.731 509.689 275.409 506.743 275.491C505.597 275.573 503.797 274.592 502.324 273.202C500.851 271.812 499.869 270.096 499.787 268.951C499.787 268.461 499.787 267.97 499.787 267.561C499.787 263.638 500.442 262.984 507.071 260.531C511.981 262.738 513.863 264.21 513.045 268.624ZM181.026 452.149L181.272 453.784C181.763 458.116 185.282 459.588 187.574 460.569C188.31 460.896 189.047 461.223 189.701 461.55C190.683 462.204 192.32 462.694 194.939 461.55C198.376 459.997 202.795 455.582 203.205 452.312C203.286 451.495 203.368 450.759 203.368 450.023C203.368 441.358 195.839 438.66 193.22 437.761C192.893 437.598 192.484 437.598 192.156 437.679C192.075 437.679 192.075 437.679 191.993 437.679C190.356 437.598 189.128 438.333 188.392 438.906C188.146 439.069 187.819 439.314 187.574 439.314C179.553 441.44 180.454 447.898 181.026 452.149ZM191.993 442.257C197.312 444.219 199.195 446.917 198.54 451.577C198.294 453.375 193.63 457.626 192.238 457.544C191.42 456.972 190.438 456.563 189.374 456.154C187.001 455.173 186.1 454.601 185.855 453.13L185.609 451.413C185.446 450.023 185.282 448.879 185.282 447.898C185.282 445.527 186.1 444.383 188.801 443.647C189.701 443.402 190.356 442.993 190.847 442.584C191.093 442.421 191.584 442.094 191.665 442.094C191.911 442.257 191.993 442.257 191.993 442.257ZM559.774 669.926C565.503 667.065 566.321 661.996 566.321 658.072C566.321 657.173 566.24 656.356 566.24 655.62C565.749 647.527 565.83 639.189 565.83 631.259C565.83 627.417 565.83 623.575 565.83 619.732C565.83 617.689 565.912 615.645 566.076 613.601C566.321 609.677 566.567 605.672 565.83 601.339C565.503 599.459 565.094 597.497 562.23 595.699C556.174 591.938 549.954 588.423 543.898 584.99C538.005 581.638 531.868 578.123 525.975 574.526C524.257 573.463 522.538 572.564 520.738 571.583C518.364 570.357 516.155 569.13 514.109 567.659C509.526 564.389 505.188 564.225 500.442 567.087C490.621 573.054 480.637 578.777 470.734 584.499L466.561 586.951C462.141 589.486 457.395 592.183 452.484 594.718C447.983 597.007 447.492 600.685 447.492 603.71C447.656 620.632 447.738 639.761 447.41 658.563C447.41 663.958 449.293 667.555 453.957 670.171C461.568 674.34 469.098 678.673 476.708 683.006L488.002 689.464C489.639 690.363 491.276 691.426 492.912 692.407C496.923 694.859 501.014 697.393 505.679 699.028C506.007 699.192 506.416 699.192 506.743 699.192C506.907 699.192 507.152 699.192 507.316 699.192C510.835 698.701 513.536 696.821 515.909 695.186C516.973 694.45 517.955 693.715 519.101 693.142C524.911 690.036 530.64 686.684 536.205 683.414C543.734 678.591 551.672 673.932 559.774 669.926ZM513.127 691.017C510.999 692.488 509.035 693.796 506.743 694.205C502.733 692.734 499.132 690.445 495.286 688.156C493.649 687.093 491.93 686.112 490.212 685.131L478.918 678.755C471.307 674.422 463.778 670.089 456.085 665.838C452.893 664.122 451.83 662.242 451.993 658.481C452.321 639.597 452.157 620.468 452.075 603.546C451.993 601.012 452.648 599.786 454.53 598.805C459.522 596.271 464.351 593.491 468.77 590.957L472.944 588.505C482.928 582.701 492.912 576.978 502.733 571.011C505.925 569.13 508.134 569.212 511.244 571.419C513.536 573.054 515.991 574.362 518.364 575.67C520.001 576.569 521.72 577.469 523.275 578.45C529.249 582.128 535.387 585.644 541.361 589.077C547.335 592.51 553.555 596.026 559.529 599.704C560.675 600.44 560.675 600.603 561.002 602.484C561.657 605.999 561.411 609.514 561.166 613.274C561.002 615.482 560.92 617.607 560.92 619.814C561.002 623.656 560.92 627.499 560.92 631.341C560.92 639.434 560.92 647.772 561.329 656.029C561.657 661.097 561.084 664.04 557.483 665.838C549.217 669.926 541.197 674.586 533.504 679.163C528.021 682.433 522.292 685.785 516.564 688.81C515.5 689.382 514.354 690.199 513.127 691.017ZM453.957 306.147C461.568 310.316 469.098 314.648 476.708 318.981L488.002 325.439C489.639 326.338 491.276 327.401 492.912 328.382C496.923 330.835 501.014 333.369 505.597 335.004C505.925 335.167 506.334 335.167 506.661 335.167C506.825 335.167 507.071 335.167 507.234 335.167C510.753 334.677 513.454 332.797 515.827 331.162C516.891 330.426 517.873 329.69 519.019 329.118C524.829 326.011 530.558 322.66 536.123 319.39C543.816 314.894 551.754 310.234 559.774 306.228C565.503 303.449 566.322 298.299 566.322 294.375C566.322 293.476 566.24 292.658 566.24 291.922C565.749 283.502 565.749 274.919 565.83 266.662C565.83 262.902 565.83 259.223 565.83 255.463C565.749 253.501 565.912 251.539 566.076 249.495C566.322 245.735 566.567 241.811 565.83 237.478C565.503 235.598 565.094 233.636 562.23 231.838C556.174 228.077 549.954 224.562 543.898 221.129C538.005 217.777 531.868 214.262 525.975 210.665C524.993 210.011 523.929 209.52 522.865 208.948L518.119 211.728C518.282 211.809 518.364 211.891 518.528 211.973C520.165 212.872 521.883 213.771 523.438 214.752C529.412 218.431 535.55 221.946 541.524 225.379C547.499 228.813 553.718 232.328 559.693 236.007C560.838 236.742 560.838 236.906 561.166 238.786C561.82 242.22 561.575 245.653 561.329 249.332C561.166 251.457 561.084 253.501 561.084 255.626C561.084 259.387 561.084 263.065 561.084 266.826C561.084 275.164 561.084 283.829 561.493 292.331C561.82 297.4 561.248 300.343 557.647 302.141C549.381 306.228 541.361 310.888 533.668 315.466C528.185 318.736 522.456 322.087 516.727 325.112C515.5 325.766 514.272 326.584 513.127 327.401C510.999 328.873 509.035 330.181 506.743 330.589C502.733 329.118 499.132 326.829 495.286 324.54C493.649 323.477 491.93 322.496 490.212 321.515L478.918 315.139C471.307 310.806 463.778 306.474 456.085 302.223C452.894 300.506 451.83 298.626 451.993 294.865C452.321 279.579 452.239 264.128 452.157 249.822L447.41 252.52C447.492 266.09 447.492 280.559 447.247 294.784C447.329 300.016 449.211 303.531 453.957 306.147ZM517.71 633.221C517.873 632.322 517.955 631.504 517.955 630.687C517.955 623.902 512.472 621.449 508.38 619.651C507.971 619.487 507.562 619.406 507.152 619.487C506.825 619.487 506.416 619.487 506.088 619.651C497.086 623.084 495.04 624.719 495.122 632.894C495.204 635.428 496.595 638.208 499.132 640.578C501.669 642.949 504.534 644.257 506.989 644.175C512.308 643.848 516.891 638.289 517.71 633.221ZM502.406 637.063C500.933 635.673 499.869 633.957 499.869 632.812C499.869 632.322 499.869 631.831 499.869 631.422C499.869 627.499 500.523 626.845 507.152 624.392C511.981 626.599 513.863 628.071 513.127 632.567C512.636 635.673 509.771 639.352 506.825 639.434C505.679 639.352 503.879 638.453 502.406 637.063ZM835.406 31.6364C842.035 35.3968 848.664 39.239 855.293 42.9994C861.021 46.3511 866.832 49.621 872.642 52.9727C875.179 54.4442 875.752 55.5068 875.589 58.368C875.507 67.5238 875.507 76.8431 875.507 86.0806C875.507 95.3181 875.507 104.638 875.589 113.793C875.507 116.491 875.179 117.717 872.642 119.27C869.451 121.232 866.177 123.112 862.986 124.911C860.367 126.382 857.748 127.854 855.211 129.325C850.301 132.268 845.308 135.13 840.398 137.909C835.079 140.934 829.677 144.04 824.44 147.228C822.476 148.455 820.511 148.455 818.465 147.228L806.926 140.443C803.653 138.481 800.297 136.601 797.024 134.639C788.267 129.489 779.265 124.093 770.099 119.189C767.562 117.799 767.153 116.736 767.153 113.793C767.235 98.5882 767.235 83.2195 767.153 67.9326L762.406 70.6302C762.488 85.0179 762.488 99.4056 762.406 113.711C762.488 117.881 763.306 120.824 767.808 123.276C776.81 128.181 785.812 133.495 794.569 138.645C797.842 140.607 801.198 142.569 804.471 144.449L816.01 151.234C819.611 153.359 823.294 153.359 826.813 151.234C832.051 148.046 837.37 145.021 842.69 141.996C847.682 139.135 852.674 136.274 857.584 133.331C860.121 131.86 862.658 130.388 865.195 128.917C868.551 127.036 871.824 125.156 875.098 123.194C879.435 120.497 880.417 117.472 880.335 113.63C880.253 95.2364 880.253 76.5978 880.335 58.2863L880.335 58.1227C880.335 54.1989 879.435 51.256 875.016 48.7217C869.205 45.4518 863.477 42.1002 857.748 38.7485C851.119 34.9063 844.49 31.1459 837.861 27.3038C837.779 27.222 837.698 27.222 837.616 27.1403L832.869 29.8379C833.687 30.6555 834.506 31.1459 835.406 31.6364ZM881.236 2.20703C882.463 2.86108 883.691 3.5968 884.918 4.25073L884.918 -0.000122077L881.236 2.20703ZM814.292 77.3336C810.609 79.8678 808.563 86.7347 810.364 90.6586C812.246 94.9095 816.911 97.9342 821.33 97.9342C825.176 97.9342 830.168 95.3999 832.296 90.5768C832.787 89.514 833.033 88.2878 833.033 86.9799C833.033 83.1377 830.987 78.7233 827.877 76.6796C826.813 75.9439 825.585 75.3716 824.44 74.7176L823.048 73.9819C822.639 73.7367 822.148 73.6549 821.657 73.7367C821.412 73.7367 821.166 73.7367 820.921 73.7367C818.547 74.2272 816.829 75.5352 815.192 76.5979L814.292 77.3336ZM822.23 79.0503C823.294 79.6226 824.276 80.1948 825.34 80.767C827.55 82.1567 829.023 86.5711 828.041 88.7783C826.731 91.6395 823.621 93.2745 821.33 93.2745C819.12 93.2745 816.01 91.7213 814.619 88.6966C814.455 88.2878 814.374 87.7974 814.374 87.2252C814.374 85.0997 815.519 82.1567 816.911 81.1758L817.893 80.5218C819.12 79.6226 820.184 78.8868 821.412 78.5598L822.23 79.0503Z" fill="url(#paint0_linear_1_1900)" fill-opacity="0.6"/>
<defs>
<linearGradient id="paint0_linear_1_1900" x1="686.138" y1="991.25" x2="69.066" y2="172.949" gradientUnits="userSpaceOnUse">
<stop stop-color="#FF7200"/>
<stop offset="0.60144" stop-color="white" stop-opacity="0"/>
</linearGradient>
</defs>
</svg>
