<svg width="1436" height="1061" viewBox="0 0 1436 1061" fill="none" xmlns="http://www.w3.org/2000/svg">
<path d="M1873.5 1480.52L1879.76 1478.45L1230.02 794.192L1066.56 746.119L773.39 652.585L337.476 189.815L331.255 191.934L777.089 660.988L1066.56 746.119L1232.1 798.935L1873.5 1480.52Z" fill="#F1F2FD"/>
<path d="M1862.53 1490.23L1868.42 1487.79L1220.45 810.943L1057.7 765.635L780.51 677.285L318.925 202.837L313.421 205.604L784.008 685.229L1057.7 765.635L1222.66 815.807L1862.53 1490.23Z" fill="#F1F2FD"/>
<path d="M1851.56 1499.93L1857.07 1497.13L1210.89 827.696L1048.83 785.147L787.627 701.981L300.378 215.863L295.587 219.273L790.936 709.475L1048.83 785.147L1213.23 832.679L1851.56 1499.93Z" fill="#F1F2FD"/>
<path d="M1840.58 1509.64L1845.73 1506.47L1201.33 844.447L1039.96 804.66L794.752 726.682L281.831 228.89L277.757 232.947L797.862 733.724L1039.96 804.66L1203.8 849.555L1840.58 1509.64Z" fill="#F1F2FD"/>
<path d="M1829.62 1519.35L1834.38 1515.81L1191.76 861.199L1031.1 824.174L801.873 751.382L263.28 241.912L259.929 246.618L804.784 757.969L1031.1 824.174L1194.36 866.428L1829.62 1519.35Z" fill="#F1F2FD"/>
<path d="M1818.65 1529.05L1823.03 1525.15L1182.2 877.953L1022.23 843.686L808.993 776.081L244.733 254.938L242.099 260.292L811.712 782.215L1022.23 843.686L1184.93 883.301L1818.65 1529.05Z" fill="#F1F2FD"/>
<path d="M1807.68 1538.76L1811.69 1534.49L1172.63 894.699L1013.36 863.199L816.109 800.777L226.183 267.961L224.269 273.965L818.638 806.463L1013.36 863.199L1175.49 900.174L1807.68 1538.76Z" fill="#F1F2FD"/>
<path d="M1796.7 1548.47L1800.34 1543.83L1163.07 911.453L1004.49 882.715L823.233 825.48L207.636 280.987L206.44 287.637L825.561 830.708L1004.49 882.715L1166.05 917.042L1796.7 1548.47Z" fill="#F1F2FD"/>
<path d="M1785.73 1558.17L1788.99 1553.17L1153.51 928.206L995.628 902.225L830.353 850.18L189.089 294.013L188.61 301.31L832.487 854.956L995.628 902.225L1156.62 933.916L1785.73 1558.17Z" fill="#F1F2FD"/>
<path d="M1774.76 1567.88L1777.65 1562.51L1143.94 944.957L986.759 921.738L837.474 874.88L170.541 307.04L170.776 314.98L839.414 879.203L986.759 921.738L1147.18 950.792L1774.76 1567.88Z" fill="#F1F2FD"/>
<path d="M1763.79 1577.59L1766.31 1571.86L1134.38 961.709L977.894 941.254L844.598 899.583L151.991 320.062L152.943 328.65L846.337 903.448L977.894 941.254L1137.75 967.665L1763.79 1577.59Z" fill="#F1F2FD"/>
<path d="M1752.82 1587.29L1754.96 1581.2L1124.82 978.463L969.025 960.766L851.714 924.279L133.444 333.088L135.114 342.321L853.263 927.696L969.025 960.766L1128.31 984.539L1752.82 1587.29Z" fill="#F1F2FD"/>
<path d="M1741.85 1597L1743.61 1590.53L1115.25 995.211L960.16 980.282L858.834 948.978L114.897 346.115L117.282 355.997L860.189 951.944L960.16 980.282L1118.88 1001.41L1741.85 1597Z" fill="#F1F2FD"/>
<path d="M1730.88 1606.71L1732.27 1599.88L1105.69 1011.96L951.292 999.793L865.96 973.68L96.346 359.137L99.454 369.668L867.108 976.185L951.292 999.793L1109.45 1018.29L1730.88 1606.71Z" fill="#F1F2FD"/>
<path d="M1719.91 1616.41L1720.92 1609.22L1096.13 1028.72L942.427 1019.31L873.08 998.379L77.7953 372.16L81.6239 383.341L874.036 1000.43L942.427 1019.31L1100.01 1035.16L1719.91 1616.41Z" fill="#F1F2FD"/>
<path d="M1708.94 1626.12L1709.58 1618.56L1086.56 1045.47L933.562 1038.82L880.197 1023.08L59.2519 385.19L63.7938 397.015L880.962 1024.68L933.562 1038.82L1090.58 1052.03L1708.94 1626.12Z" fill="#F1F2FD"/>
<path d="M1697.96 1635.83L1698.23 1627.9L1077 1062.22L924.689 1058.33L887.321 1047.78L40.7012 398.212L45.9617 410.683L887.884 1048.92L924.689 1058.33L1081.14 1068.91L1697.96 1635.83Z" fill="#F1F2FD"/>
<path d="M1686.99 1645.53L1686.88 1637.24L1067.44 1078.97L915.826 1077.85L894.441 1072.48L22.1542 411.238L28.1279 424.353L894.81 1073.17L915.826 1077.85L1071.7 1085.78L1686.99 1645.53Z" fill="#F1F2FD"/>
<path d="M1676.02 1655.24L1675.54 1646.58L1057.87 1095.72L906.961 1097.36L901.565 1097.18L3.60346 424.261L10.2979 438.026L901.738 1097.42L906.961 1097.36L1062.27 1102.65L1676.02 1655.24Z" fill="#F1F2FD"/>
</svg>
